<svg id="Layer_1" data-name="Layer 1" xmlns="http://www.w3.org/2000/svg" xmlns:xlink="http://www.w3.org/1999/xlink" viewBox="0 0 300 120">
  <defs>
    <clipPath id="clip-path">
      <rect width="300" height="119.66" fill="none"/>
    </clipPath>
  </defs>
  <title>uq-logo-lockup</title>
  <g clip-path="url(#clip-path)">
    <path d="M0,0H0M0,0ZM0,0ZM0,0ZM0,0ZM0,0ZM0,0ZM0,0ZM0,0H0M0,0ZM0,0ZM0,0ZM0,0ZM0,0H0M0,0ZM0,0H0M0,0H0M0,0ZM0,0H0M0,0ZM0,0ZM0,0H0M0,0H0M0,0ZM0,0ZM0,0ZM0,0H0M0,0ZM0,0H0M0,0ZM0,0ZM0,0ZM0,0ZM0,0H0M0,0H0M0,0H0M0,0H0M0,0ZM0,0H0M0,0ZM0,0ZM0,0ZM0,0H0M0,0ZM0,0ZM0,0H0M0,0H0M0,0ZM0,0H0M0,0ZM0,0ZM0,0H0M0,0H0M0,0H0M0,0H0M0,0H0M0,0H0M0,0ZM0,0H0M0,0ZM0,0H0M0,0H0M0,0H0M0,0H0M0,0ZM0,0ZM0,0ZM0,0ZM0,0Z" fill="#47166d"/>
  </g>
</svg>
