<svg id="Layer_1" data-name="Layer 1" xmlns="http://www.w3.org/2000/svg" xmlns:xlink="http://www.w3.org/1999/xlink" viewBox="0 0 300 79">
  <defs>
    <clipPath id="clip-path" transform="translate(-170 -281)">
      <rect x="170" y="281" width="300" height="78.75" fill="none"/>
    </clipPath>
  </defs>
  <title>uq-logo</title>
  <g clip-path="url(#clip-path)">
    <path d="M0,0H0M0,0H0M0,0ZM0,0H0M0,0ZM0,0ZM0,0H0M0,0H0M0,0ZM0,0ZM0,0ZM0,0H0M0,0ZM0,0H0M0,0ZM0,0ZM0,0ZM0,0ZM0,0H0M0,0H0M0,0H0M0,0H0M0,0ZM0,0H0M0,0ZM0,0ZM0,0ZM0,0H0M0,0ZM0,0ZM0,0H0M0,0H0M0,0ZM0,0H0M0,0ZM0,0ZM0,0H0M0,0H0M0,0H0M0,0H0M0,0H0M0,0H0M0,0ZM0,0H0M0,0ZM0,0H0M0,0H0M0,0H0M0,0H0M0,0ZM0,0ZM0,0ZM0,0Z" transform="translate(-170 -281)" fill="#47166d"/>
  </g>
</svg>
